<svg width="37" height="28" viewBox="0 0 37 28" fill="none" xmlns="http://www.w3.org/2000/svg">
<mask id="mask0_8_55" style="mask-type:alpha" maskUnits="userSpaceOnUse" x="0" y="0" width="37" height="28">
<rect width="36.2963" height="28" fill="#D9D9D9"/>
</mask>
<g mask="url(#mask0_8_55)">
<path d="M17.014 15.75C17.9718 15.75 18.7784 15.4972 19.4337 14.9917C20.0891 14.4861 20.4167 13.8639 20.4167 13.125C20.4167 12.3861 20.0891 11.7639 19.4337 11.2583C18.7784 10.7528 17.9718 10.5 17.014 10.5C16.0561 10.5 15.2496 10.7528 14.5942 11.2583C13.9389 11.7639 13.6112 12.3861 13.6112 13.125C13.6112 13.8639 13.9389 14.4861 14.5942 14.9917C15.2496 15.4972 16.0561 15.75 17.014 15.75ZM24.311 20.4167L20.3411 17.3542C19.837 17.6069 19.3014 17.7917 18.7343 17.9083C18.1671 18.025 17.5937 18.0833 17.014 18.0833C15.2244 18.0833 13.7057 17.6021 12.458 16.6396C11.2103 15.6771 10.5865 14.5056 10.5865 13.125C10.5865 11.7444 11.2103 10.5729 12.458 9.61042C13.7057 8.64792 15.2244 8.16667 17.014 8.16667C18.8036 8.16667 20.3222 8.64792 21.5699 9.61042C22.8176 10.5729 23.4414 11.7444 23.4414 13.125C23.4414 13.5722 23.3595 14.0146 23.1957 14.4521C23.0318 14.8896 22.7861 15.3028 22.4584 15.6917L26.4661 18.7833L24.311 20.4167ZM7.5618 24.5C6.73001 24.5 6.01795 24.2715 5.42561 23.8146C4.83328 23.3576 4.53711 22.8083 4.53711 22.1667V17.5H7.5618V22.1667H13.6112V24.5H7.5618ZM22.6853 24.5V22.1667H28.7346V17.5H31.7593V22.1667C31.7593 22.8083 31.4632 23.3576 30.8708 23.8146C30.2785 24.2715 29.5664 24.5 28.7346 24.5H22.6853ZM4.53711 10.5V5.83333C4.53711 5.19167 4.83328 4.64236 5.42561 4.18542C6.01795 3.72847 6.73001 3.5 7.5618 3.5H13.6112V5.83333H7.5618V10.5H4.53711ZM28.7346 10.5V5.83333H22.6853V3.5H28.7346C29.5664 3.5 30.2785 3.72847 30.8708 4.18542C31.4632 4.64236 31.7593 5.19167 31.7593 5.83333V10.5H28.7346Z" fill="#1C1B1F"/>
</g>
</svg>
